<mxfile host="65bd71144e">
    <diagram id="ZAE3xiOWC9NIiP2LD7az" name="PÃ¡gina-1">
        <mxGraphModel dx="258" dy="652" grid="1" gridSize="10" guides="1" tooltips="1" connect="1" arrows="1" fold="1" page="1" pageScale="1" pageWidth="827" pageHeight="1169" math="0" shadow="0">
            <root>
                <mxCell id="0"/>
                <mxCell id="1" parent="0"/>
                <mxCell id="61" value="" style="rounded=0;whiteSpace=wrap;html=1;fillColor=#0D1117;strokeColor=#30363D;strokeWidth=4;" parent="1" vertex="1">
                    <mxGeometry x="150" y="650" width="410" height="270" as="geometry"/>
                </mxCell>
                <mxCell id="90" value="&lt;font color=&quot;#ffffff&quot;&gt;&amp;lt;&amp;lt;TaskService&amp;gt;&amp;gt;&lt;br&gt;&lt;/font&gt;&lt;span style=&quot;color: rgb(255 , 255 , 255)&quot;&gt;DeliveryService&lt;/span&gt;&lt;font color=&quot;#ffffff&quot;&gt;&lt;br&gt;&lt;/font&gt;" style="rounded=0;whiteSpace=wrap;html=1;strokeColor=#FFF;fillColor=#30363D;" parent="1" vertex="1">
                    <mxGeometry x="170" y="670" width="360" height="30" as="geometry"/>
                </mxCell>
                <mxCell id="92" value="&lt;font color=&quot;#ffffff&quot;&gt;&lt;br&gt;&lt;/font&gt;" style="rounded=0;whiteSpace=wrap;html=1;strokeColor=#FFF;fillColor=#30363D;" parent="1" vertex="1">
                    <mxGeometry x="170" y="700" width="360" height="10" as="geometry"/>
                </mxCell>
                <mxCell id="93" value="&lt;font color=&quot;#ffffff&quot;&gt;&lt;div&gt;+ startDeliveryProcess (int deliveryNumber)&lt;/div&gt;&lt;div&gt;+ confirmDelivery (int deliveryNumber)&lt;/div&gt;&lt;/font&gt;" style="rounded=0;whiteSpace=wrap;html=1;strokeColor=#FFF;fillColor=#30363D;align=left;" parent="1" vertex="1">
                    <mxGeometry x="170" y="710" width="360" height="30" as="geometry"/>
                </mxCell>
                <mxCell id="94" value="&lt;font color=&quot;#ffffff&quot;&gt;&amp;lt;&amp;lt;EntityService&amp;gt;&amp;gt;&lt;br&gt;&lt;/font&gt;&lt;font color=&quot;#ffffff&quot;&gt;OrderService&lt;br&gt;&lt;/font&gt;" style="rounded=0;whiteSpace=wrap;html=1;strokeColor=#FFF;fillColor=#30363D;" parent="1" vertex="1">
                    <mxGeometry x="170" y="750" width="360" height="30" as="geometry"/>
                </mxCell>
                <mxCell id="95" value="&lt;font color=&quot;#ffffff&quot;&gt;&lt;br&gt;&lt;/font&gt;" style="rounded=0;whiteSpace=wrap;html=1;strokeColor=#FFF;fillColor=#30363D;" parent="1" vertex="1">
                    <mxGeometry x="170" y="780" width="360" height="10" as="geometry"/>
                </mxCell>
                <mxCell id="96" value="&lt;font color=&quot;#ffffff&quot;&gt;+ ListOrders (int deliveryManId)&lt;br&gt;&lt;/font&gt;" style="rounded=0;whiteSpace=wrap;html=1;strokeColor=#FFF;fillColor=#30363D;align=left;" parent="1" vertex="1">
                    <mxGeometry x="170" y="790" width="360" height="30" as="geometry"/>
                </mxCell>
                <mxCell id="97" value="&lt;font color=&quot;#ffffff&quot;&gt;&amp;lt;&amp;lt;UtilityService&amp;gt;&amp;gt;&lt;br&gt;&lt;/font&gt;&lt;font color=&quot;#ffffff&quot;&gt;OrderService&lt;br&gt;&lt;/font&gt;" style="rounded=0;whiteSpace=wrap;html=1;strokeColor=#FFF;fillColor=#30363D;" parent="1" vertex="1">
                    <mxGeometry x="170" y="830" width="360" height="30" as="geometry"/>
                </mxCell>
                <mxCell id="98" value="&lt;font color=&quot;#ffffff&quot;&gt;&lt;br&gt;&lt;/font&gt;" style="rounded=0;whiteSpace=wrap;html=1;strokeColor=#FFF;fillColor=#30363D;" parent="1" vertex="1">
                    <mxGeometry x="170" y="860" width="360" height="10" as="geometry"/>
                </mxCell>
                <mxCell id="99" value="&lt;font color=&quot;#ffffff&quot;&gt;&lt;div&gt;&amp;nbsp;+ GenerateEmail (int orderId)&lt;/div&gt;&lt;div&gt;&amp;nbsp;+ SendEmail (String clientEmail)&lt;/div&gt;&lt;/font&gt;" style="rounded=0;whiteSpace=wrap;html=1;strokeColor=#FFF;fillColor=#30363D;align=left;" parent="1" vertex="1">
                    <mxGeometry x="170" y="870" width="360" height="30" as="geometry"/>
                </mxCell>
            </root>
        </mxGraphModel>
    </diagram>
</mxfile>